<svg xmlns="http://www.w3.org/2000/svg" viewBox="0 0 52.55 40"><defs><style>.cls-1{fill:#fff;}</style></defs><g id="Layer_2" data-name="Layer 2"><g id="Layer_1-2" data-name="Layer 1"><path class="cls-1" d="M2,40V33L16.64,19.33A13.05,13.05,0,0,0,19,16.72a7.76,7.76,0,0,0,1-2,6.36,6.36,0,0,0,.25-1.74A3.61,3.61,0,0,0,19,10,5.74,5.74,0,0,0,15.18,9a8.36,8.36,0,0,0-3.95,1,7.7,7.7,0,0,0-3,2.8L0,8.18A15.59,15.59,0,0,1,6.27,2.24,20.64,20.64,0,0,1,16.19,0a20,20,0,0,1,8,1.48A12.88,12.88,0,0,1,29.5,5.6a10.48,10.48,0,0,1,1.93,6.33,14.48,14.48,0,0,1-.51,3.76,13.14,13.14,0,0,1-1.93,4,28.14,28.14,0,0,1-4.23,4.68L13.17,35.13,11.26,31.2H32.55V40Z"/><path class="cls-1" d="M41.46,40V4.76l4.81,4.65H34.17V.78H52.55V40Z"/></g></g></svg>