<svg xmlns="http://www.w3.org/2000/svg" viewBox="0 0 36.93 40"><defs></defs><g id="Layer_2" data-name="Layer 2"><g id="Layer_1-2" data-name="Layer 1"><path class="cls-1" d="M36.82,17c0-.11,0-.21,0-.31s-.05-.4-.09-.59a3.43,3.43,0,0,0-.06-.34l-.09-.5c0-.11-.05-.22-.07-.33s-.07-.3-.1-.44,0-.21-.08-.31-.07-.27-.11-.4l-.09-.29L36,13.12l-.09-.27-.13-.33c0-.08-.07-.16-.1-.23L35.49,12a2,2,0,0,0-.1-.21l-.16-.29-.1-.18-.19-.3a1.25,1.25,0,0,1-.09-.12,5.45,5.45,0,0,0-.6-.72l0-.05a3.45,3.45,0,0,0-.28-.26l-.08-.07-.26-.2-.1-.07-.25-.18-.1-.06-.28-.16-.09,0-.3-.15-.08,0L32,8.73l0,0C30.44,8.08,28.61,7.8,26.62,7a7.89,7.89,0,0,1-2.33-5,6.79,6.79,0,0,1,0-1.27A.6.6,0,1,0,23.09.53a7.59,7.59,0,0,0,0,1.19C21.37,3.07,12,10.92,9,20.9a3.33,3.33,0,0,0,1.16.31c2.44-8,9.34-14.76,12.42-17.47-1.08,3.93-3.07,13.16-1.13,22l.2.07a3.07,3.07,0,0,0,1.08.19c-2-8.4-.16-17.49.92-21.6A9,9,0,0,0,25,7c-.06.25-.11.49-.16.73v0c0,.23-.07.45-.09.67v0c0,.21,0,.42,0,.62v0c0,.19,0,.38,0,.56a.13.13,0,0,1,0,.06,4.34,4.34,0,0,0,.07.52s0,0,0,.06a3.89,3.89,0,0,0,.12.49.43.43,0,0,1,0,0,4.7,4.7,0,0,0,.17.45.14.14,0,0,0,0,.06c.06.14.13.28.2.42l0,.05a4.11,4.11,0,0,0,.24.39l0,0,.28.36,0,0c.1.12.21.23.32.34l0,0,.35.32,0,0c.12.1.24.2.37.29l0,0c.13.1.27.19.41.28l0,0,.44.26,0,0,.46.25h0l.5.25h0c1.69.79,3.63,1.36,5.37,2l.06,0,.42.15.12,0,.36.15.17.06.32.15.17.07.33.16.15.08c.15.07.3.16.44.24C36.9,17.63,36.86,17.31,36.82,17Z"/><path class="cls-1" d="M21.22,26.83A5.37,5.37,0,0,0,20,26.52a5.62,5.62,0,0,0-1-.08,6.55,6.55,0,0,0-3.06.85l0,0A5.12,5.12,0,0,0,13.61,31c-.56,3.57,1.27,7.86,6.61,8.84a7.38,7.38,0,0,0,5.74-1,8.31,8.31,0,0,0,3-5.49,5.38,5.38,0,0,0-4.76-6.21A6.35,6.35,0,0,0,23,27.11,4.21,4.21,0,0,1,21.22,26.83ZM24,29.06a.54.54,0,0,1,.71.27.53.53,0,0,1-.27.7,4,4,0,0,1-1.7.37,5.59,5.59,0,0,1-2.95-.93.53.53,0,1,1,.61-.87A4,4,0,0,0,24,29.06Z"/><path class="cls-1" d="M7.19,21.34A5.38,5.38,0,0,0,.29,25c-1,3.49.36,8,5.55,9.54,2.72.84,5,.52,6.73-.92a9.33,9.33,0,0,1,0-2.84,6.17,6.17,0,0,1,2.78-4.38,5.65,5.65,0,0,0-4.07-4,5.69,5.69,0,0,0-1.19-.2,4.17,4.17,0,0,1-1.76-.48A4.94,4.94,0,0,0,7.19,21.34Zm3.67,3a.54.54,0,0,1,.67.35.53.53,0,0,1-.34.67,4.32,4.32,0,0,1-1.25.19,5.48,5.48,0,0,1-3.31-1.29.53.53,0,1,1,.71-.79A4.05,4.05,0,0,0,10.86,24.33Z"/></g></g></svg>