<svg xmlns="http://www.w3.org/2000/svg" viewBox="0 0 36.63 40"><defs><style>.cls-1{fill:#fefefe;fill-rule:evenodd;}</style></defs><g id="Layer_2" data-name="Layer 2"><g id="Layer_1-2" data-name="Layer 1"><path class="cls-1" d="M11,25.05A7.24,7.24,0,0,1,11,23.93h0s-6.66-4.69-.54-11.21c0,0-5.24,5.8.65,10.83a.31.31,0,0,1,.12-.14c.17,0,.57.22.75.29l.77.29a7,7,0,0,0,1.35.25c.87,0,.45.12.9.16.25,0,.88.25,1.29.31l1.79.34a6.92,6.92,0,0,1,.88.19,6,6,0,0,1,2.21,1c.76.54.53.54,1,.92a2.25,2.25,0,0,1,.59,1.25c0,.21,0,.27,0,.59a3.61,3.61,0,0,1-.67,2.08,2.18,2.18,0,0,1-1,.73l-.54.15a1.21,1.21,0,0,0-.3,0,10,10,0,0,1-2.57,0l-.55-.11-.29-.06A8.52,8.52,0,0,1,14.69,31a8.34,8.34,0,0,1-1.4-1l-.53-.52-.16-.18a6.42,6.42,0,0,1-.72-1A7,7,0,0,1,11,25.05ZM20.54,3.41a8.23,8.23,0,0,1,1.35.26l.44.12c0,.13,0,.14,0,.29a6.2,6.2,0,0,0,.59,3.08l.41.72c.05.06.17.18.06.19s-.15-.11-.2-.16l-.56-.56A7.89,7.89,0,0,1,21.53,6a8.05,8.05,0,0,1-.84-2,2.59,2.59,0,0,1-.15-.61Zm-1.32-.19a2.43,2.43,0,0,1,.64.08,4.88,4.88,0,0,1,0,.68c0,.24.05.42.09.64a4.49,4.49,0,0,1,.1.64,1.57,1.57,0,0,1-.15-.19c-.22-.42-.37-.84-.55-1.28Zm.29,3.65a1.43,1.43,0,0,1-.22-.15l-.56-.59c-.08-.1-.12-.24-.26-.28a3.18,3.18,0,0,0,.1.33,3.82,3.82,0,0,0,1.26,1.66c.06,0,.08,0,.1.13a3.19,3.19,0,0,1-.73-.42,9.87,9.87,0,0,1-1.27-1,2.57,2.57,0,0,1-.29-.28l-.15-.15-.4-.44A2,2,0,0,0,17,5.51a11.72,11.72,0,0,1-1.31-1.84,1.81,1.81,0,0,1-.2-.39,15.89,15.89,0,0,1,3.11-.17c.09,0,.06,0,.07.18a8.88,8.88,0,0,0,.71,3.15,1.19,1.19,0,0,1,.18.43Zm-5-4.35a1.07,1.07,0,0,1-.37.11,15.2,15.2,0,0,0-2.56.8L11,3.71l-.33.16-.48.23L10,4.18a18.44,18.44,0,0,0-2.07,1.3L7.1,6.1c-.11.08-.15.14-.25.22-.28.22-.5.47-.76.69l-.59.61-.13.12L5.15,8,5,8.12c-.06.08-.07.06-.1.15.15,0,.25-.22.35-.32l.24-.21c.28-.26.59-.49.88-.73A15.53,15.53,0,0,1,8.9,5.37l.31-.17a20.12,20.12,0,0,1,2.57-1.11c.48-.16.93-.29,1.43-.41a9.3,9.3,0,0,1,1.54-.3c.14,0,.18.26.21.36a10.09,10.09,0,0,0,.56,1.2c.14.26.27.49.42.73s.14.23.23.36c.46.69,1,1.35,1.47,2,.14.18.78.88.81,1-.17,0-.22-.13-.32-.22l-.28-.24a5.65,5.65,0,0,0-1.34-.83l-.37-.16A7.12,7.12,0,0,0,14.5,7,15,15,0,0,0,12,6.79c0,.13.17.13.29.17l1,.4a8.45,8.45,0,0,1,1.71,1A9.51,9.51,0,0,1,15.7,9l.59.56c.06.06.07,0,.08.15l-1.12-.69A8.26,8.26,0,0,0,11.14,7.7v.06a8.94,8.94,0,0,1,1.37.38,10.12,10.12,0,0,1,2.32,1.28.39.39,0,0,1,.19.19.88.88,0,0,1-.56-.13L14,9.28l-.23-.09a7.86,7.86,0,0,0-2.86-.65,11.78,11.78,0,0,0-2.68.27,9,9,0,0,0-2.61,1l-.56.35a9.21,9.21,0,0,0-1.51,1.24,5.63,5.63,0,0,0,.72-.48A5.06,5.06,0,0,1,7,10a6,6,0,0,1,2.22.31,5.41,5.41,0,0,1,.71.25c.23.09.46.21.68.28,0,.14,0,.13-.09.19l-.54.37a4.9,4.9,0,0,1-1.09,0,8.43,8.43,0,0,0-2.19.26,7.66,7.66,0,0,0-2.54,1.22A10.45,10.45,0,0,0,2.3,14.8,12.62,12.62,0,0,0,.82,17.37c0,.06,0,.12-.08.19A11.77,11.77,0,0,0,0,20.05H.05a6.62,6.62,0,0,1,.72-1.69,5,5,0,0,1,.62-.88,4.34,4.34,0,0,1,1.53-1.19l.44-.17a7.71,7.71,0,0,1,2.38-.31,2,2,0,0,1,.27,0c.51,0,.53,0,.33.44-.1.2-.31.25-.5.36a12.12,12.12,0,0,0-1.06.7l-.27.18c-.18.13-.31.24-.48.38l-.23.2L2.9,19l0,.06-.05.06A9.46,9.46,0,0,0,2,20.21a8.5,8.5,0,0,0-1,4.33,15.72,15.72,0,0,0,.8,4.71l.23.69c0,.11.08.21.12.33s.08.24.18.31A12.3,12.3,0,0,1,2,28.73a7.84,7.84,0,0,1,.12-1.61,5,5,0,0,1,1.45-2.61L4.1,24a9.2,9.2,0,0,1,1.27-.78,8.37,8.37,0,0,0,0-.89c0-.31,0-.6,0-.94h0a11.87,11.87,0,0,0,.45,3.07c.13.43.2,1,.33,1.4a8.53,8.53,0,0,0,1,2.26c.25.37.13.37.35.78.11.2.2.36.32.56l.09.12a2.22,2.22,0,0,1,.25.42l.36.53a4.36,4.36,0,0,0,.35.4l0,0,.48.49c.08.07.17.12.24.19s0,.07.09.12c.19.21,1.34,1.09,1.59,1.27a7.56,7.56,0,0,0,1.12.61l1.79.83.62.25c.44.17.87.3,1.32.44a6.84,6.84,0,0,0,1.42.34c.26,0,.5.08.77.11a11.57,11.57,0,0,0,1.76,0c.18,0,.33,0,.5,0a11.78,11.78,0,0,0,1.88-.36,7.55,7.55,0,0,0,1.6-.61,2.53,2.53,0,0,0,.36-.2c.18-.12.29-.25.46-.38l.43-.42a1.8,1.8,0,0,1,.26-.29,6.24,6.24,0,0,0,1-.68c.19-.17.42-.32.61-.51a7.51,7.51,0,0,0,1.47-1.89,7.82,7.82,0,0,0,.64-2.18,5.87,5.87,0,0,0-.2-2.43c0-.12,0-.14-.1-.2a6,6,0,0,1-.2,2.4c-.09.24-.33.74-.62.74s-.38-.05-.38-.35a4.88,4.88,0,0,0-.08-1.87,9.48,9.48,0,0,0-.59-1.8A12.27,12.27,0,0,0,25.54,22l-.57-.6a1.81,1.81,0,0,0-.33-.29c0,.13.06.25.11.37a1.9,1.9,0,0,1,.17,1.15c-.06.17-.19.15-.33.15s-.6-.57-.73-.75-.19-.27-.3-.42a5.08,5.08,0,0,0-1.08-1.14A10.46,10.46,0,0,0,19.87,19l-.28-.09a8.14,8.14,0,0,0-2.42-.49v.06a3.47,3.47,0,0,1,.95.51c.19.16.45.37.42.66s-.19.22-.39.22-.36-.21-.56-.32a2.08,2.08,0,0,0-.87-.05c-.09,0-.29-.18-.39-.23a3.14,3.14,0,0,1-.47-.17s-.09-.12-.14-.18c-.32-.31-.71-.32-1-.6a.53.53,0,0,1-.25-.39,4.6,4.6,0,0,1-.28-1.15c0-.16.26-.19.51-.69a1.2,1.2,0,0,1,.16-.27c.86,0,.84-.64,1-.64.4,0,.49.31,1.13-.13a.9.9,0,0,0,.34-.52c.43,0,.56-.07.69.11a.79.79,0,0,0,1.28,0c.2-.24.18-.28.91.22.89.6,2.26,1,3.24,1.56l.33.2a3.53,3.53,0,0,1,.32.21c.31.21.72.53.72,1,0,.24-.88-.07-1-.13a5.88,5.88,0,0,1-2.17-1.3c-.11-.1-.23-.3-.4-.32a3.3,3.3,0,0,0,.6.79v0h0l0,0v0h0l1.89,1.53.63.39a5.35,5.35,0,0,0,.68.3,1.48,1.48,0,0,0,.39.11,1.75,1.75,0,0,0,.88,0c.13,0,.05,0,.12-.06s.05-.12.15-.2l.21-.14.47-.38c.1-.09.25-.15.26-.3a.87.87,0,0,0-.24.1l-.26.11a1.43,1.43,0,0,1-.62.11c-.07-.33-.3-.61-.08-.79s.11,0,.11-.18c-.46,0-.32.07-.57-.31s.07-.39-.12-.44-.19,0-.4-.3-.67-.82-.67-1.07a9.37,9.37,0,0,1,1.58.21c.19,0,.65.07.71.19s-.24.49-.24.7c.46,0,.55-.67.93-.37.12.09.37.27.37.42s-.24.38-.29.62c.27,0,.49-.38.64-.38a2.15,2.15,0,0,1,.36.23l.18.12c.16.09.15.16.15.33a2,2,0,0,1-.37.86c-.08.12-.29.46,0,.2a3.28,3.28,0,0,0,.72-.77c.26-.39.17-.34.7-.21a2,2,0,0,0,0,.29c.07-.06.05-.07.1-.16a1.84,1.84,0,0,1,.28-.56c.12-.15.52-.36.52-.57s-.72-.71-.94-.87a7.7,7.7,0,0,1-1.73-1.9,12.65,12.65,0,0,1-.68-1.15l.05-.4A4.89,4.89,0,0,0,28,11.09a3.15,3.15,0,0,0-1.15-2.31,1.54,1.54,0,0,0,.09.37,2.25,2.25,0,0,1-.11,1.29c-.1.2-.25.41-.48.41,0-.39.9-.82-.84-2.14l-.34-.27a6.55,6.55,0,0,1-1.48-1.62,5.54,5.54,0,0,1-.4-.85,6.23,6.23,0,0,1-.45-2l.71.22A20.15,20.15,0,0,1,26.75,5.6c.4.22.77.47,1.14.72a14.65,14.65,0,0,1,1.7,1.33L30,8c.09.08.15.12.24.21l.24.24.89,1A17.41,17.41,0,0,1,32.56,11l.18.28.54.88c0,.09.11.18.16.29a17.83,17.83,0,0,1,1.72,4.38,21.48,21.48,0,0,1,.41,2.4c0,.12,0,.32,0,.42s0,.28,0,.45c0,.43,0,.8,0,1.21a2.23,2.23,0,0,1,0,.27,5.06,5.06,0,0,1,0,.57c0,.37,0,.69-.09,1.06l-.16,1a19.25,19.25,0,0,1-.65,2.51,1.8,1.8,0,0,0-.08.21,1.76,1.76,0,0,0-.12.44l-.05,1.11c0,.17-.09.34,0,.48a.84.84,0,0,0,.25-.36c.07-.15.14-.25.21-.41s.27-.55.4-.86.23-.58.35-.9a16.71,16.71,0,0,0,1-5.33l0-1.59A17.58,17.58,0,0,0,36,16.13l-.23-.76c-.15-.52-.33-1-.51-1.46a15.94,15.94,0,0,0-1.13-2.31l-.28-.47A1.1,1.1,0,0,0,33.8,11l-.19-.32c-.48-.71-.94-1.31-1.47-2l-.23-.25c-.15-.19-.31-.33-.47-.51l-.11-.13L31,7.42c-.09-.1-.17-.14-.26-.23a1.55,1.55,0,0,0-.26-.25c-.1-.08-.15-.15-.25-.23l-.27-.23A16.3,16.3,0,0,0,28.23,5.2a15.8,15.8,0,0,0-1.53-.91l-.34-.17L25,3.51c-.49-.18-.94-.36-1.46-.51a3.6,3.6,0,0,0-.78-.21,4.53,4.53,0,0,1,0-.64,5.87,5.87,0,0,0,0-.62c-.12.09-.16.4-.2.55s-.1.45-.12.63L21,2.41c-.09,0-.47-.07-.54-.1a8.34,8.34,0,0,1,0-1.34h-.06a6.48,6.48,0,0,1-.16.63,4.12,4.12,0,0,1-.16.65,5.58,5.58,0,0,1-1-.08c-.1,0-.08,0-.1-.16a4.85,4.85,0,0,1-.11-.75c-.1.08-.09.31-.1.43s-.05.34-.06.48c-.31,0-.62,0-.93,0-.83,0-2.27.25-2.58.25s-.42-1-.46-1.13a6.18,6.18,0,0,1-.2-1A.57.57,0,0,0,14.38,0a11.15,11.15,0,0,0,.09,1.93,5.58,5.58,0,0,1,.09.59Zm8.76,8.64A8.45,8.45,0,0,0,25,12.42a7.79,7.79,0,0,1,1.49.91l1.11.95-1.77-.59A8.32,8.32,0,0,1,24,13a19,19,0,0,1-.69-1.81Z"/><path class="cls-1" d="M10,38A5.65,5.65,0,0,1,7.8,34.38a10.33,10.33,0,0,1,0-1.47,6.09,6.09,0,0,1,.33-1.51c.19-.57.29-.53,0-.88a14.56,14.56,0,0,1-1.77-3.15c-.07-.16-.1-.29-.16-.45a17.31,17.31,0,0,1-.68-2.41c0-.16-.06-.37-.1-.54H5.34l-.49.88c-.15.31-.27.63-.41.95-.06.14-.12.33-.18.49A11.59,11.59,0,0,0,3.87,28a7.39,7.39,0,0,0,.63,4.3,11.88,11.88,0,0,0,.6,1.11,11,11,0,0,0,1.16,1.56l.66.71.16.16.91.81A14.42,14.42,0,0,0,10,38Z"/><path class="cls-1" d="M32.08,23.68c0,.1,0,0,0,.08s-.3-.29-.4-.4a7.24,7.24,0,0,0-.9-.76,9.26,9.26,0,0,0-2.43-1.28,1.07,1.07,0,0,0-.33-.08c0,.12.21.18.32.24a10.37,10.37,0,0,1,1.3,1,7.18,7.18,0,0,1,.86.88,8.65,8.65,0,0,1,1.16,1.7l.38.77a1.05,1.05,0,0,1,.1.86,8.69,8.69,0,0,1-.69,2.05A10.2,10.2,0,0,1,30.67,30l-.09.15a9.57,9.57,0,0,1-.64.89c-.25.3-.49.61-.76.89l-.32.35-.06.05h0l0,0a12.4,12.4,0,0,1-1.24,1.06,14,14,0,0,1-1.36.91,1.18,1.18,0,0,1-.29.16v.06c.24,0,.44.08.69.08a10.09,10.09,0,0,0,3.1-.42l.37-.13c.13,0,.25-.08.37-.14A5.54,5.54,0,0,0,33,31.63a6.63,6.63,0,0,0,.33-.65,5.13,5.13,0,0,0,.28-.72c.08-.27.16-.52.23-.79a8,8,0,0,0,.15-.83,7.47,7.47,0,0,0,0-.94,6.18,6.18,0,0,0-.19-1.31,4.1,4.1,0,0,1-.11-.4c-.09.06,0,.12,0,.26a3.7,3.7,0,0,1-.11,1.45,3.24,3.24,0,0,1-.13.33c-.12.28-.63,1.28-1,1.28a.23.23,0,0,1-.11,0,2.32,2.32,0,0,1,.18-.65,8.12,8.12,0,0,0,.11-4.32,8.92,8.92,0,0,0-.39-1.24A8.36,8.36,0,0,0,31.74,22a5.77,5.77,0,0,0-1.52-1.77c0,.11.05.13.13.2a6.11,6.11,0,0,1,1,1.31,5.72,5.72,0,0,1,.72,1.93Z"/><path class="cls-1" d="M17.44,40v0a6.3,6.3,0,0,1-1-.37,4.05,4.05,0,0,1-.84-.58l-.13-.11h0l-.62-.8a3.57,3.57,0,0,1-.35-.77,10.7,10.7,0,0,1-.42-2.1c0-.13-.25-.17-.54-.32l-1.43-.81L9.7,32.27a0,0,0,0,1,0,0l-.81-.86c-.12-.12-.3-.41-.43-.45a3.78,3.78,0,0,0,.07,1A14.24,14.24,0,0,0,9,33.77a7.42,7.42,0,0,0,.93,1.92l.35.48a7.88,7.88,0,0,0,1.61,1.51c.21.16.44.32.66.46l.71.41a15.42,15.42,0,0,0,1.55.71L16,39.7a7.16,7.16,0,0,0,1.4.3Z"/><path class="cls-1" d="M21.79,39.6a9.2,9.2,0,0,0,.94-.05,12,12,0,0,0,1.7-.27l.77-.22c-.09-.13-.09,0-.4,0a4.21,4.21,0,0,1-2.3-.31,3.58,3.58,0,0,1-1.14-.89,6.11,6.11,0,0,1-.68-.92c-.27-.46-.29-.75-.64-.73a10.55,10.55,0,0,1-1.94-.05,12.77,12.77,0,0,1-3.22-.69,3,3,0,0,0-.61-.19,8.21,8.21,0,0,0,1.18,1.79,6.39,6.39,0,0,0,.73.74l.4.34A4.59,4.59,0,0,0,18,39c.38.13.75.23,1.16.33a10.6,10.6,0,0,0,1.24.22,12.11,12.11,0,0,0,1.39.1Z"/><path class="cls-1" d="M28.78,35.73a3.9,3.9,0,0,1-2.19-.47l-.23-.11c-1-.51-.67-.52-1.27-.22a13.22,13.22,0,0,1-2.37.88l-.52.12-1.66.28c.07.24,1.27.88,1.42,1a7.08,7.08,0,0,0,3.18.81A9.39,9.39,0,0,0,29,36.77l.2-.12a9.55,9.55,0,0,0,1.62-1.27c.26-.24.38-.4.62-.66a2,2,0,0,0,.25-.41c-.13,0-.55.5-.9.72a3.88,3.88,0,0,1-2,.7Z"/></g></g></svg>