<svg xmlns="http://www.w3.org/2000/svg" viewBox="0 0 36.03 40"><defs><style>.cls-1{fill:#fff;}</style></defs><g id="Layer_2" data-name="Layer 2"><g id="Layer_1-2" data-name="Layer 1"><path class="cls-1" d="M13.23,23.87a.49.49,0,0,0,.33.08s.07-.09.07-.29a2.05,2.05,0,0,0-.94-1.56c-.19-.11-.3-.1-.32-.09s-.08.09-.08.29A2.09,2.09,0,0,0,13.23,23.87Z"/><path class="cls-1" d="M35.45,9.76,18,0,.58,9.76l.36.2L18,19.52,35.09,10Zm-22,1.09a3,3,0,0,1-2.69,0A1.27,1.27,0,0,1,10,9.76a1.27,1.27,0,0,1,.73-1.09,3,3,0,0,1,2.69,0,1.27,1.27,0,0,1,.73,1.09A1.27,1.27,0,0,1,13.43,10.85Zm5.93,3.32a3,3,0,0,1-2.69,0,1.18,1.18,0,0,1,0-2.18,3,3,0,0,1,2.69,0,1.18,1.18,0,0,1,0,2.18Zm0-6.64h0a3,3,0,0,1-2.69,0,1.27,1.27,0,0,1-.73-1.09,1.27,1.27,0,0,1,.73-1.09,3,3,0,0,1,2.69,0,1.28,1.28,0,0,1,.73,1.09A1.27,1.27,0,0,1,19.36,7.53Zm5.94,3.32a2.89,2.89,0,0,1-1.35.32,2.86,2.86,0,0,1-1.35-.32,1.3,1.3,0,0,1-.73-1.09,1.29,1.29,0,0,1,.73-1.09,3,3,0,0,1,2.7,0A1.29,1.29,0,0,1,26,9.76,1.29,1.29,0,0,1,25.3,10.85Z"/><path class="cls-1" d="M13.23,33.35a.49.49,0,0,0,.33.08s.07-.09.07-.28a2.06,2.06,0,0,0-.94-1.57c-.19-.11-.3-.1-.32-.08s-.08.08-.08.28A2.07,2.07,0,0,0,13.23,33.35Z"/><path class="cls-1" d="M17.21,6.32a.39.39,0,0,0-.16.13.67.67,0,0,0,.16.11,1.89,1.89,0,0,0,1.61,0c.11-.06.15-.1.16-.13a1.39,1.39,0,0,0-.16-.11A1.89,1.89,0,0,0,17.21,6.32Z"/><path class="cls-1" d="M17.21,13a.39.39,0,0,0-.16.13,1.39,1.39,0,0,0,.16.11,1.89,1.89,0,0,0,1.61,0,.39.39,0,0,0,.16-.13,1.39,1.39,0,0,0-.16-.11A1.89,1.89,0,0,0,17.21,13Z"/><path class="cls-1" d="M23.14,9.64a.48.48,0,0,0-.16.13s.06.05.16.11a1.91,1.91,0,0,0,1.62,0,.66.66,0,0,0,.16-.13l-.16-.11A1.91,1.91,0,0,0,23.14,9.64Z"/><path class="cls-1" d="M9,26.23c.19.11.3.1.32.09s.08-.09.08-.29a2.05,2.05,0,0,0-.94-1.56.51.51,0,0,0-.28-.09h0a.48.48,0,0,0-.07.29A2.05,2.05,0,0,0,9,26.23Z"/><path class="cls-1" d="M11.28,9.64a.39.39,0,0,0-.16.13,1.39,1.39,0,0,0,.16.11,1.89,1.89,0,0,0,1.61,0h0a.39.39,0,0,0,.16-.13,1.39,1.39,0,0,0-.16-.11A1.89,1.89,0,0,0,11.28,9.64Z"/><path class="cls-1" d="M27.85,24.38a.65.65,0,0,0-.28.09A2,2,0,0,0,26.64,26c0,.19.05.27.07.28a.47.47,0,0,0,.32-.08A2.07,2.07,0,0,0,28,24.67c0-.2,0-.27-.07-.28Z"/><path class="cls-1" d="M4.77,28.61c.2.11.3.1.32.08s.08-.09.08-.28a2.06,2.06,0,0,0-.94-1.57A.62.62,0,0,0,4,26.75s0,0,0,0-.08.08-.08.28A2.06,2.06,0,0,0,4.77,28.61Z"/><path class="cls-1" d="M0,30.22,17.46,40V20.48L2,11.83,0,10.7Zm11.81-9.16a1.4,1.4,0,0,1,1.42.07,3.16,3.16,0,0,1,1.51,2.53,1.38,1.38,0,0,1-.62,1.24,1.18,1.18,0,0,1-.61.16,1.65,1.65,0,0,1-.82-.23h0a3.16,3.16,0,0,1-1.5-2.53A1.36,1.36,0,0,1,11.81,21.06Zm0,9.48a1.4,1.4,0,0,1,1.42.07,3.17,3.17,0,0,1,1.51,2.54,1.4,1.4,0,0,1-.62,1.24,1.29,1.29,0,0,1-.61.16,1.67,1.67,0,0,1-.82-.24h0a3.16,3.16,0,0,1-1.5-2.53A1.36,1.36,0,0,1,11.81,30.54ZM7.57,23.43A1.42,1.42,0,0,1,9,23.5,3.18,3.18,0,0,1,10.5,26a1.36,1.36,0,0,1-.62,1.24,1.15,1.15,0,0,1-.6.16,1.6,1.6,0,0,1-.82-.23A3.15,3.15,0,0,1,7,24.67,1.38,1.38,0,0,1,7.57,23.43ZM3.35,16.32a1.4,1.4,0,0,1,1.42.07,3.17,3.17,0,0,1,1.51,2.54,1.4,1.4,0,0,1-.62,1.24,1.29,1.29,0,0,1-.61.16,1.61,1.61,0,0,1-.82-.24,3.17,3.17,0,0,1-1.51-2.53A1.36,1.36,0,0,1,3.35,16.32Zm0,9.48a1.4,1.4,0,0,1,1.42.07,3.17,3.17,0,0,1,1.51,2.54,1.39,1.39,0,0,1-.62,1.24,1.29,1.29,0,0,1-.61.16,1.7,1.7,0,0,1-.82-.23A3.21,3.21,0,0,1,2.72,27,1.36,1.36,0,0,1,3.35,25.8Z"/><path class="cls-1" d="M4.77,19.13c.2.11.3.09.32.08s.08-.09.08-.28a2.06,2.06,0,0,0-.94-1.57A.62.62,0,0,0,4,17.27s0,0,0,0-.08.08-.08.28A2.07,2.07,0,0,0,4.77,19.13Z"/><path class="cls-1" d="M36,10.7l-2,1.13L18.57,20.48V40L36,30.22ZM27.57,27.2a1.61,1.61,0,0,1-.82.24,1.25,1.25,0,0,1-.6-.16A1.38,1.38,0,0,1,25.53,26,3.18,3.18,0,0,1,27,23.5a1.42,1.42,0,0,1,1.43-.07,1.38,1.38,0,0,1,.62,1.24A3.15,3.15,0,0,1,27.57,27.2Z"/></g></g></svg>