<svg xmlns="http://www.w3.org/2000/svg" viewBox="0 0 39.64 40"><defs><style>.cls-1{fill:#fefefe;fill-rule:evenodd;}</style></defs><g id="Layer_2" data-name="Layer 2"><g id="Layer_1-2" data-name="Layer 1"><path class="cls-1" d="M0,36.34v.45A3.41,3.41,0,0,0,3.18,40c2,0,2.39-.76,3.65-2,1.58-1.6,18.23-18.31,18.54-18.77a62,62,0,0,1-4.77-4.82C20.18,14.65,10.34,24.69,10,25l-8,8c-.8.82-2,1.72-2,3.28Z"/><path class="cls-1" d="M21.39,12.5c0,1.21.95,1.85,1.75,2.61l2.21,2.23c.6.62,1.36,1.53,2.79.82A20.7,20.7,0,0,0,30,16.36c1.39-1.4,2.1-1.72,2.1-3.14,0-.87-.59-1.27-1-1.72L28.27,8.68c-.81-.81-.86-1.09-2.1-1.09a1.7,1.7,0,0,0-.89.27,2.74,2.74,0,0,0-.35.27l0,0-2.63,2.69a2.06,2.06,0,0,0-.87,1.63Z"/><path class="cls-1" d="M29.35,19l1.48,1.36A30.89,30.89,0,0,1,36.69,29c.32.65.58,1.25.91,1.93.42.88.56,1.82,1.21,1.82,1.07,0,.79-1.61.79-3a19.27,19.27,0,0,0-.67-4.68,20.45,20.45,0,0,0-.62-2.05,27.55,27.55,0,0,0-2.72-5.46,17.42,17.42,0,0,0-2.35-3.08c-.17.65-3.5,3.88-3.89,4.47Z"/><path class="cls-1" d="M7.16.72c0,.73.74.84,1.62,1.22,2.83,1.24,7.71,3.93,9.85,6.12l1.45,1.48a4.37,4.37,0,0,0,.7.82c.37-.26.67-.69,1-1l2.15-2a5.92,5.92,0,0,1,1.22-.92c-.59-.88-4.61-3.46-6-4.07A21.58,21.58,0,0,0,8.13,0c-.49,0-1,.26-1,.72Z"/></g></g></svg>