<svg xmlns="http://www.w3.org/2000/svg" viewBox="0 0 40 40"><defs><style>.cls-1{fill:#fff;}</style></defs><g id="Layer_2" data-name="Layer 2"><g id="Layer_1-2" data-name="Layer 1"><path class="cls-1" d="M6.65,13.89A14.82,14.82,0,0,1,9.25,10L5.48,6.23a20.2,20.2,0,0,0-3.76,5.62Z"/><path class="cls-1" d="M5.33,19.47a14.52,14.52,0,0,1,.91-4.59l-4.93-2A20,20,0,0,0,0,19.47Z"/><path class="cls-1" d="M10,9.25a14.82,14.82,0,0,1,3.88-2.6l-2-4.93A20.2,20.2,0,0,0,6.23,5.48Z"/><path class="cls-1" d="M30,9.25l3.78-3.77a20.2,20.2,0,0,0-5.62-3.76l-2,4.93A14.82,14.82,0,0,1,30,9.25Z"/><path class="cls-1" d="M5.33,20.53H0a20,20,0,0,0,1.31,6.63l4.93-2A14.52,14.52,0,0,1,5.33,20.53Z"/><path class="cls-1" d="M33.35,26.11A14.82,14.82,0,0,1,30.75,30l3.77,3.78a20.2,20.2,0,0,0,3.76-5.62Z"/><path class="cls-1" d="M33.35,13.89l4.93-2a20.2,20.2,0,0,0-3.76-5.62L30.75,10A14.82,14.82,0,0,1,33.35,13.89Z"/><path class="cls-1" d="M34.67,20.53a14.52,14.52,0,0,1-.91,4.59l4.93,2A20,20,0,0,0,40,20.53Z"/><path class="cls-1" d="M6.65,26.11l-4.93,2a20.2,20.2,0,0,0,3.76,5.62L9.25,30A14.82,14.82,0,0,1,6.65,26.11Z"/><path class="cls-1" d="M10,30.75,6.23,34.52a20.2,20.2,0,0,0,5.62,3.76l2-4.93A14.82,14.82,0,0,1,10,30.75Z"/><path class="cls-1" d="M30,30.75a14.82,14.82,0,0,1-3.88,2.6l2,4.93a20.2,20.2,0,0,0,5.62-3.76Z"/><path class="cls-1" d="M19.47,34.67a14.52,14.52,0,0,1-4.59-.91l-2,4.93A20,20,0,0,0,19.47,40Z"/><circle class="cls-1" cx="27.55" cy="19.82" r="1.2"/><path class="cls-1" d="M20,6.38A13.62,13.62,0,1,0,33.62,20,13.64,13.64,0,0,0,20,6.38Zm7.55,15.71a2.25,2.25,0,0,1-2.14-1.56H23.19a3.22,3.22,0,0,1-2.66,2.66v2.16a2.27,2.27,0,1,1-1.06,0V23.19a3.22,3.22,0,0,1-2.66-2.66H14.65a2.27,2.27,0,1,1,0-1.06h2.16a3.21,3.21,0,0,1,2.66-2.66V14.65a2.27,2.27,0,1,1,1.06,0v2.16a3.21,3.21,0,0,1,2.66,2.66h2.13a2.27,2.27,0,1,1,2.23,2.62Z"/><path class="cls-1" d="M20.53,5.33a14.52,14.52,0,0,1,4.59.91l2-4.93A20,20,0,0,0,20.53,0Z"/><path class="cls-1" d="M25.12,33.76a14.52,14.52,0,0,1-4.59.91V40a20,20,0,0,0,6.63-1.31Z"/><path class="cls-1" d="M14.88,6.24a14.52,14.52,0,0,1,4.59-.91V0a20,20,0,0,0-6.63,1.31Z"/><path class="cls-1" d="M18.8,27.55a1.2,1.2,0,1,0,1.2-1.2A1.21,1.21,0,0,0,18.8,27.55Z"/><path class="cls-1" d="M34.67,19.47H40a20,20,0,0,0-1.31-6.63l-4.93,2A14.52,14.52,0,0,1,34.67,19.47Z"/><path class="cls-1" d="M21.2,12.45a1.2,1.2,0,1,0-1.2,1.2A1.21,1.21,0,0,0,21.2,12.45Z"/><circle class="cls-1" cx="12.45" cy="20" r="1.2"/><path class="cls-1" d="M20,17.82A2.18,2.18,0,1,0,22.18,20,2.19,2.19,0,0,0,20,17.82Z"/></g></g></svg>