<svg xmlns="http://www.w3.org/2000/svg" viewBox="0 0 32.42 40"><defs><style>.cls-1{fill:#fff;}</style></defs><g id="Layer_2" data-name="Layer 2"><g id="Layer_1-2" data-name="Layer 1"><path class="cls-1" d="M11.44,9.06a.54.54,0,0,1,.29.88S8.87,13,9.53,15.74c1.74-.61,4.08-3.44,4.9-4.57A.52.52,0,0,1,15,11a.54.54,0,0,1,.35.53c-.06.88.06,3.13,1.14,4.08a19.38,19.38,0,0,0,1.22-4.08.51.51,0,0,1,.34-.41.54.54,0,0,1,.53.09,11.57,11.57,0,0,0,5,2.16,10.39,10.39,0,0,0-2.6-4,.5.5,0,0,1-.1-.63.51.51,0,0,1,.58-.26,20.73,20.73,0,0,0,5.29.6,7.74,7.74,0,0,0-4.65-3.78,6.66,6.66,0,0,0-5.18.65,32.5,32.5,0,0,0,0-5.4.59.59,0,1,0-1.18.11,33,33,0,0,1,0,5.65l-.15,0a16.26,16.26,0,0,0-10.16-.1C7,8.2,11.39,9.05,11.44,9.06Z"/><path class="cls-1" d="M24.83,5.42A8.86,8.86,0,0,1,28,9.27a.52.52,0,0,1,0,.44.53.53,0,0,1-.34.28,13.74,13.74,0,0,1-4.85-.17A8.19,8.19,0,0,1,24.77,14a.56.56,0,0,1-.16.43.58.58,0,0,1-.44.13,14.17,14.17,0,0,1-5.56-2,20.86,20.86,0,0,1-1.38,4.08.51.51,0,0,1-.47.31.54.54,0,0,1-.22-.05c-1.54-.68-2-2.54-2.17-3.89-1.19,1.44-3.32,3.7-5.12,3.93a.53.53,0,0,1-.56-.33c-1-2.63.73-5.4,1.7-6.65A13.32,13.32,0,0,1,5.33,7.56l-.13,0S-10.23,15,12.07,37.66c7,7.17,13.6-4.24,14.86-6.2S39.89,7.22,24.83,5.42ZM11.37,20.58c-.66,1.63-1.17,2.28-1.79,2.28H9.51c-.76-.07-1-1.07-1.18-1.87,0-.18-.08-.33-.11-.43a.52.52,0,0,1,.32-.67.53.53,0,0,1,.67.32c0,.13.09.32.14.54a6.12,6.12,0,0,0,.27.94,6.09,6.09,0,0,0,.77-1.5.53.53,0,0,1,.69-.29A.52.52,0,0,1,11.37,20.58Zm3.46,6c-.66,1.62-1.17,2.28-1.79,2.28H13c-.77-.06-1-1.06-1.18-1.86,0-.18-.08-.33-.11-.43a.51.51,0,0,1,.32-.67.52.52,0,0,1,.67.32c0,.12.09.32.14.54a6.46,6.46,0,0,0,.27.94,6.09,6.09,0,0,0,.77-1.5.53.53,0,0,1,1,.39Zm.77-6.64a.52.52,0,0,1,.32-.67.53.53,0,0,1,.67.32c0,.13.09.32.14.54a6.57,6.57,0,0,0,.27.95,6.49,6.49,0,0,0,.77-1.51.53.53,0,0,1,.69-.29.52.52,0,0,1,.29.68c-.66,1.63-1.17,2.28-1.79,2.28h-.07c-.76-.06-1-1.07-1.18-1.87C15.67,20.19,15.63,20,15.6,19.94Zm3.77,12.44c-.66,1.63-1.17,2.28-1.79,2.28h-.07c-.76-.06-1-1.06-1.18-1.86,0-.18-.08-.33-.11-.43a.52.52,0,0,1,.32-.67.53.53,0,0,1,.67.32c0,.13.09.32.14.54a6.12,6.12,0,0,0,.27.94,6.09,6.09,0,0,0,.77-1.5.53.53,0,0,1,.69-.29A.52.52,0,0,1,19.37,32.38Zm3.3-7.75c-.66,1.63-1.17,2.28-1.79,2.28h-.07c-.76-.06-1-1.07-1.18-1.87a3.26,3.26,0,0,0-.11-.43.53.53,0,0,1,1-.35,4.53,4.53,0,0,1,.14.54,8.15,8.15,0,0,0,.27.95,6.34,6.34,0,0,0,.78-1.51.52.52,0,0,1,1,.39Zm4.34-6c-.66,1.62-1.17,2.27-1.79,2.27h-.07c-.77-.06-1-1.06-1.18-1.87,0-.17-.08-.33-.11-.43a.52.52,0,0,1,.32-.67.54.54,0,0,1,.67.32c0,.13.09.32.14.55a6.83,6.83,0,0,0,.27.94A6.26,6.26,0,0,0,26,18.24a.53.53,0,0,1,.69-.29A.54.54,0,0,1,27,18.64Z"/></g></g></svg>