<svg xmlns="http://www.w3.org/2000/svg" viewBox="0 0 40.03 40"><defs><style>.cls-1{fill:#fff;}</style></defs><g id="Layer_2" data-name="Layer 2"><g id="Layer_1-2" data-name="Layer 1"><path class="cls-1" d="M9.7,30.85a.73.73,0,0,0,.48-.29l3.94-3.79,8.35-8c1.05-1,2.1-2,3.14-3,.18-.17.26-.14.41,0,.55.64.45.5,0,1l-7.49,8.52L11,33.87,8.23,37a.87.87,0,0,1-.4.26L.26,39.94C.19,40,.1,40,0,40s0-.15,0-.23l2.69-7.59a.82.82,0,0,1,.26-.4l5-4.39,5.32-4.65,3.86-3.43,4.74-4.15c.51-.44,1-.89,1.51-1.35.2-.17.33-.2.55,0,.49.41.5.4.06.86-1.84,1.92-3.67,3.84-5.51,5.75l-6,6.25-3,3.17a1.72,1.72,0,0,0-.24.31A.51.51,0,0,0,9.7,30.85Z"/><path class="cls-1" d="M30.88,30.35a.71.71,0,0,0-.23-.47L26.1,25.13,23,21.92c-.17-.18-.19-.3,0-.48s.49-.55.73-.83.29-.31.58-.05L27,23l6.44,5.66L37,31.74a1,1,0,0,1,.29.43L40,39.76c0,.07.08.14,0,.2s-.16,0-.23,0l-7.62-2.68a1.11,1.11,0,0,1-.44-.33l-4.44-5-5-5.73c-.5-.57-1-1.14-1.51-1.7-.16-.18-.16-.29,0-.46s.56-.63.83-.95.25-.19.42,0l3.32,3.2,4.6,4.4a.53.53,0,0,0,1-.28Z"/><path class="cls-1" d="M10,12.42c-.13,0-.17-.1-.23-.17-.77-1-1.56-1.92-2.4-2.84A46.77,46.77,0,0,0,3.11,5.3c-.33-.28-.67-.55-1-.84-.14-.13-.24-.14-.38,0-.47.45-.47.44-.93,0l-.69-.7C0,3.62,0,3.54.17,3.46A7.36,7.36,0,0,0,3.48.15c.09-.18.17-.2.31,0,.32.32.63.64,1,1,.15.15.14.26,0,.41-.43.45-.42.45,0,.92C5.82,3.67,7,4.94,8.18,6.13a50.17,50.17,0,0,0,4,3.45c.37.29.38.3.08.66a18.3,18.3,0,0,1-2.07,2.06C10.09,12.35,10,12.38,10,12.42Z"/><path class="cls-1" d="M30.09,12.42l-.17-.11a15.74,15.74,0,0,1-2.24-2.23c-.15-.17-.08-.27.08-.39a48.53,48.53,0,0,0,5-4.44c.94-1,1.84-2,2.71-3,.29-.35.29-.35,0-.66s-.32-.32,0-.65.53-.51.78-.78.26-.21.39.05a7.18,7.18,0,0,0,2.68,2.92c.2.13.41.24.62.35s.16.16,0,.27c-.34.33-.67.67-1,1-.13.14-.23.11-.36,0-.47-.42-.47-.41-1,0a47,47,0,0,0-5.28,5.09c-.68.76-1.34,1.54-2,2.36A.63.63,0,0,1,30.09,12.42Z"/><path class="cls-1" d="M10.59,18.32l-.16-.14c-.81-.8-1.61-1.61-2.42-2.4-.16-.16-.14-.23.06-.33a15.82,15.82,0,0,0,6.54-5.83,13.14,13.14,0,0,0,.86-1.56c.1-.21.17-.24.34-.07l2.37,2.37c.21.2.17.3-.07.41A15.36,15.36,0,0,0,14.68,13,15.66,15.66,0,0,0,10.85,18C10.79,18.1,10.76,18.26,10.59,18.32Z"/><path class="cls-1" d="M32.12,15.64a2.61,2.61,0,0,1-.17.2l-2.3,2.3c-.24.24-.27.24-.42-.07A15.71,15.71,0,0,0,22,10.79c-.36-.18-.36-.18-.07-.47l2.26-2.26c.27-.27.27-.27.43.06a15.88,15.88,0,0,0,5.74,6.42,15.07,15.07,0,0,0,1.61.91C32,15.48,32.11,15.5,32.12,15.64Z"/><path class="cls-1" d="M16.29,13.61a.24.24,0,0,1,.21.1l2.72,2.38c.15.13.12.23,0,.34s-.42.36-.62.55-.22.1-.34,0c-.83-.88-1.66-1.75-2.5-2.62-.13-.13-.13-.23,0-.34A4.6,4.6,0,0,1,16.29,13.61Z"/><path class="cls-1" d="M14.16,15.61a.33.33,0,0,1,.22.11l2.51,2.39c.15.15.14.24,0,.37s-.38.33-.57.51-.22.15-.35,0l-2.2-2.49a.27.27,0,0,1,0-.42Z"/></g></g></svg>