<svg xmlns="http://www.w3.org/2000/svg" viewBox="0 0 337.37 337.35">
<defs><style>.cls-1{fill:#fff;}</style></defs><g id="Layer_2" data-name="Layer 2"><g id="Layer_1-2" data-name="Layer 1"><g id="Iconly_Bold_Volume_Down" data-name="Iconly Bold Volume Down"><g id="Volume_Down" data-name="Volume Down"><path id="Volume_Down-2" data-name="Volume Down-2" class="cls-1" d="M181.59,337.35a50.45,50.45,0,0,1-29.78-12.68L85.63,269.56h-34A49.59,49.59,0,0,1,2.71,221.15a523.92,523.92,0,0,1,0-106.39A50.63,50.63,0,0,1,51.63,67.71h34l64.92-54.23A56.66,56.66,0,0,1,183.09,0,47.75,47.75,0,0,1,227.5,36.66a188.08,188.08,0,0,1,4.35,28l.9,8.28a1809,1809,0,0,1,0,191.47l-.9,8.58a168.24,168.24,0,0,1-4.2,27.24,47.61,47.61,0,0,1-44.11,37.1Zm102.31-61a17.9,17.9,0,0,1-4.31-24.51,149.13,149.13,0,0,0,23.33-83.12,149,149,0,0,0-23.35-83.1,17.91,17.91,0,0,1,4.31-24.52,17.06,17.06,0,0,1,23.76,4.16l.19.28a185,185,0,0,1,29.52,103.18,185,185,0,0,1-29.5,103.17,17.12,17.12,0,0,1-14.13,7.5,16.85,16.85,0,0,1-9.82-3.06Z"/></g></g></g></g></svg>