<svg xmlns="http://www.w3.org/2000/svg" viewBox="0 0 350 244.34"><defs><style>.cls-1{fill:#fff;}</style></defs><g id="Layer_2" data-name="Layer 2"><g id="Layer_1-2" data-name="Layer 1"><path class="cls-1" d="M307.08,0H42.92A42.93,42.93,0,0,0,0,42.92v158.5a42.93,42.93,0,0,0,42.92,42.92H307.08A42.93,42.93,0,0,0,350,201.42V42.92A42.93,42.93,0,0,0,307.08,0ZM135.38,34.51a8.92,8.92,0,0,1,8.92-8.93h61.4a8.92,8.92,0,0,1,8.92,8.93V52.29a8.92,8.92,0,0,1-8.92,8.93H144.3a8.92,8.92,0,0,1-8.92-8.93Zm0,52.56a8.92,8.92,0,0,1,8.92-8.93h61.4a8.92,8.92,0,0,1,8.92,8.93v17.78a8.92,8.92,0,0,1-8.92,8.93H144.3a8.92,8.92,0,0,1-8.92-8.93Zm0,52.56a8.92,8.92,0,0,1,8.92-8.93h61.4a8.92,8.92,0,0,1,8.92,8.93v17.78a8.92,8.92,0,0,1-8.92,8.93H144.3a8.92,8.92,0,0,1-8.92-8.93ZM29,34.51a8.93,8.93,0,0,1,8.93-8.93H99.3a8.93,8.93,0,0,1,8.93,8.93V52.29a8.93,8.93,0,0,1-8.93,8.93H37.91A8.93,8.93,0,0,1,29,52.29Zm0,52.56a8.93,8.93,0,0,1,8.93-8.93H99.3a8.93,8.93,0,0,1,8.93,8.93v17.78a8.93,8.93,0,0,1-8.93,8.93H37.91A8.93,8.93,0,0,1,29,104.85Zm0,52.56a8.93,8.93,0,0,1,8.93-8.93H99.3a8.93,8.93,0,0,1,8.93,8.93v17.78a8.93,8.93,0,0,1-8.93,8.93H37.91A8.93,8.93,0,0,1,29,157.41ZM321,210a8.93,8.93,0,0,1-8.93,8.93H37.91A8.93,8.93,0,0,1,29,210V192.19a8.93,8.93,0,0,1,8.93-8.93H312.09a8.93,8.93,0,0,1,8.93,8.93Zm0-52.56a8.93,8.93,0,0,1-8.93,8.93H250.7a8.93,8.93,0,0,1-8.93-8.93V139.63a8.93,8.93,0,0,1,8.93-8.93h61.39a8.93,8.93,0,0,1,8.93,8.93Zm0-52.56a8.93,8.93,0,0,1-8.93,8.93H250.7a8.93,8.93,0,0,1-8.93-8.93V87.07a8.93,8.93,0,0,1,8.93-8.93h61.39A8.93,8.93,0,0,1,321,87.07Zm0-52.56a8.93,8.93,0,0,1-8.93,8.93H250.7a8.93,8.93,0,0,1-8.93-8.93V34.51a8.93,8.93,0,0,1,8.93-8.93h61.39A8.93,8.93,0,0,1,321,34.51Z"/></g></g></svg>