<svg xmlns="http://www.w3.org/2000/svg" viewBox="0 0 350 300.65"><defs><style>.cls-1{fill:#fff;}</style></defs><g id="Layer_2" data-name="Layer 2"><g id="Layer_1-2" data-name="Layer 1"><path class="cls-1" d="M47.85,299.61a39.19,39.19,0,0,0,23.72-60.42l38.33-52.6a39.09,39.09,0,0,0,39.6-10.49l51.84,23.29a39.22,39.22,0,1,0,65.72-25.54l41.07-95.43a39.26,39.26,0,1,0-24-10.3L243,163.54a39.09,39.09,0,0,0-31,12.05l-51.79-23.26a39.22,39.22,0,1,0-71.42,18.92l-38.34,52.6a39.22,39.22,0,1,0-2.59,75.84Z"/></g></g></svg>