<svg xmlns="http://www.w3.org/2000/svg" viewBox="0 0 350 350"><defs><style>.cls-1{fill:#fff;}</style></defs><g id="Layer_2" data-name="Layer 2"><g id="Layer_1-2" data-name="Layer 1"><path class="cls-1" d="M349.94,156.21A16.22,16.22,0,0,0,333.69,140l-27.28,0a134.84,134.84,0,0,0-14-33.62l19.26-19.32a16.23,16.23,0,0,0,0-23L285.41,38a16.22,16.22,0,0,0-22.94,0L243.21,57.36a135.12,135.12,0,0,0-33.67-13.9l0-27.26A16.23,16.23,0,0,0,193.25,0l-37,.06A16.22,16.22,0,0,0,140,16.31l0,27.26a134.94,134.94,0,0,0-33.63,14L87.11,38.32a16.23,16.23,0,0,0-23,0L38,64.59a16.22,16.22,0,0,0,0,22.94l19.32,19.25a135.19,135.19,0,0,0-13.9,33.68l-27.26,0A16.23,16.23,0,0,0,0,156.75l.06,37A16.22,16.22,0,0,0,16.31,210l27.26,0a135.27,135.27,0,0,0,14,33.62L38.32,262.89a16.23,16.23,0,0,0,0,22.95L64.59,312a16.22,16.22,0,0,0,22.94,0l19.27-19.33a134.65,134.65,0,0,0,33.66,13.89l0,27.28A16.23,16.23,0,0,0,156.75,350l37-.06A16.22,16.22,0,0,0,210,333.69l0-27.28a135.17,135.17,0,0,0,33.61-14l19.33,19.27a16.23,16.23,0,0,0,22.95,0L312,285.41a16.22,16.22,0,0,0,0-22.94L292.63,243.2a135.4,135.4,0,0,0,13.89-33.66l27.28,0A16.23,16.23,0,0,0,350,193.25ZM262.5,174.86a87.51,87.51,0,1,1-87.64-87.38A87.5,87.5,0,0,1,262.5,174.86Z"/><path class="cls-1" d="M167.41,107.6a4.06,4.06,0,0,0-1.17-3.5,4.76,4.76,0,0,0-3.5-1.4h-8.63a4.16,4.16,0,0,0-3.51,1.52A9.07,9.07,0,0,0,149,107.6l-4.2,28.24H116.06a4.82,4.82,0,0,0-5.14,5.14v7.94a4.82,4.82,0,0,0,5.14,5.13H142l-6.07,41.08H110a4.82,4.82,0,0,0-5.14,5.14v7.94a4.82,4.82,0,0,0,5.14,5.13H133.1l-4.2,28.24a4.07,4.07,0,0,0,1.16,3.51,4.77,4.77,0,0,0,3.5,1.4h8.64q4.67,0,5.37-4.91l4.2-28.24h34.31l-4.2,28.24a4.11,4.11,0,0,0,1.17,3.51,4.76,4.76,0,0,0,3.5,1.4h8.64q4.67,0,5.37-4.91l4.2-28.24h28a5.48,5.48,0,0,0,3.85-1.4,4.84,4.84,0,0,0,1.52-3.73v-7.94a4.88,4.88,0,0,0-1.52-3.74,5.48,5.48,0,0,0-3.85-1.4H207.56l6.07-41.08h25.21a5.48,5.48,0,0,0,3.85-1.4,4.84,4.84,0,0,0,1.52-3.73V141a4.88,4.88,0,0,0-1.52-3.74,5.48,5.48,0,0,0-3.85-1.4H216.2l4.2-28.24a4.09,4.09,0,0,0-1.17-3.5,4.76,4.76,0,0,0-3.5-1.4h-8.64a4.14,4.14,0,0,0-3.5,1.52A9.07,9.07,0,0,0,202,107.6l-4.2,28.24H163.21ZM195,154.05l-6.06,41.08H154.57l6.07-41.08Z"/></g></g></svg>