<svg xmlns="http://www.w3.org/2000/svg" viewBox="0 0 350 350"><defs><style>.cls-1{fill:#fff;fill-rule:evenodd;}</style></defs><g id="Layer_2" data-name="Layer 2"><g id="Layer_1-2" data-name="Layer 1"><path class="cls-1" d="M173.53,265.4a18.81,18.81,0,0,1-12.71-4.73c-3.63-3.13-5.43-7.54-5.43-13.17a16.93,16.93,0,0,1,5.26-12.67,17.7,17.7,0,0,1,12.88-5.14,17.54,17.54,0,0,1,17.82,17.81c0,5.54-1.79,9.95-5.39,13.12a18.06,18.06,0,0,1-12.43,4.78M115.28,134.5q0-11.31,7.29-23t21.25-19.29c9.33-5.09,20.17-7.62,32.6-7.62Q193.73,84.6,207,91a49.34,49.34,0,0,1,20.5,17.36,42.71,42.71,0,0,1,7.22,23.89A36.89,36.89,0,0,1,230.6,150a56,56,0,0,1-9.78,13.21c-3.78,3.71-10.6,9.91-20.38,18.67a82.75,82.75,0,0,0-6.52,6.52,24.63,24.63,0,0,0-5.51,9.78q-.67,2.34-1.95,8.2-2.27,12.41-14.23,12.39a14.53,14.53,0,0,1-10.43-4c-2.86-2.73-4.25-6.73-4.25-12.07a42.42,42.42,0,0,1,11.34-30.29q5.13-5.5,13.85-13.17c5.1-4.47,8.77-7.82,11.06-10.1a32.77,32.77,0,0,0,5.74-7.59,18.24,18.24,0,0,0,2.33-9.05,21.17,21.17,0,0,0-7.09-16.14c-4.78-4.36-10.84-6.57-18.36-6.57q-13.14,0-19.36,6.65T146.59,136c-2.73,9-7.87,13.49-15.41,13.49a15.18,15.18,0,0,1-11.3-4.73C116.83,141.55,115.28,138.17,115.28,134.5ZM175,0a175,175,0,1,1-74.31,333.47q5.37-.84,10.62-2a143.17,143.17,0,0,0,44.22-18.32c2.66.38,5.31.68,7.92.89,3.84.32,7.7.48,11.55.48A139.73,139.73,0,1,0,88.92,284.7,105,105,0,0,1,76.31,300a108.48,108.48,0,0,1-12,10.46A175,175,0,0,1,175,0Zm0,54a121,121,0,0,0-68.55,220.65A9.25,9.25,0,0,1,109.16,287,120.9,120.9,0,0,1,89.4,313.06c-1.17,1.18-2.36,2.34-3.58,3.46a134.82,134.82,0,0,0,21.37-3.11,125.08,125.08,0,0,0,41.19-17.68,9.16,9.16,0,0,1,6.62-1.4c3.17.52,6.49.94,10,1.22,3.26.27,6.61.41,10,.41A121,121,0,0,0,175,54Z"/></g></g></svg>