<svg width="126" height="144" xmlns="http://www.w3.org/2000/svg">
  <path d="M121.99 16.97c-28.5 0-56.8-16.2-57.1-16.4-.6-.3-1.2-.5-1.8-.5-.6 0-1.3.2-1.8.5-.3.2-29.3 16.4-57.5 16.4-2 0-3.7 1.7-3.7 3.7v51.6c0 22.9 10.8 42.6 31.2 56.9 15.2 10.7 30.2 14.6 30.8 14.7.3.1.6.1.9.1.3 0 .6 0 .9-.1.6-.2 15.5-4.1 30.7-14.9 20.3-14.4 31-34 31-56.8v-51.5c.1-2-1.6-3.7-3.6-3.7zm-22.9 42.1l-37.3 37.3c-1 1-2.3 1.5-3.6 1.5-1.4 0-2.7-.5-3.6-1.5l-23.1-23.1c-2-2-2-5.2.1-7.2a5.07 5.07 0 017.2 0l19.5 19.5 33.6-33.7c2-2 5.2-2 7.2.1a5.134 5.134 0 010 7.1z" fill="#00D40A" fill-rule="nonzero"/>
</svg>
